<svg width="100%" height="100%" viewBox="0 0 181 39" version="1.1" xmlns="http://www.w3.org/2000/svg" xmlns:xlink="http://www.w3.org/1999/xlink" xml:space="preserve" xmlns:serif="http://www.serif.com/" style="fill-rule:evenodd;clip-rule:evenodd;stroke-linejoin:round;stroke-miterlimit:2;">
    <g id="Artboard1" transform="matrix(1.00353,0,0,1.04935,-9.0629,-7.31394)">
        <rect x="9.031" y="6.97" width="180.363" height="37.166" style="fill:none;"/>
        <clipPath id="_clip1">
            <rect x="9.031" y="6.97" width="180.363" height="37.166"/>
        </clipPath>
        <g clip-path="url(#_clip1)">
            <g transform="matrix(0.996481,0,0,0.952974,0.697432,1.25215)">
                <g>
                    <path d="M96.147,44.136C94.985,44.136 94.085,43.779 93.448,43.063C92.811,42.348 92.492,41.336 92.492,40.028C92.492,38.685 92.815,37.647 93.463,36.915C94.109,36.183 95.031,35.816 96.228,35.816C96.614,35.816 96.999,35.858 97.385,35.941C97.771,36.024 98.073,36.122 98.293,36.234L97.92,37.266C97.651,37.159 97.358,37.07 97.041,36.998C96.724,36.928 96.442,36.893 96.198,36.893C94.567,36.893 93.752,37.933 93.752,40.013C93.752,40.999 93.951,41.756 94.35,42.284C94.747,42.811 95.337,43.075 96.119,43.075C96.788,43.075 97.473,42.93 98.177,42.642L98.177,43.719C97.638,43.997 96.962,44.136 96.147,44.136Z" style="fill:rgb(150,150,150);fill-rule:nonzero;"/>
                    <path d="M106.803,39.969C106.803,41.278 106.473,42.299 105.814,43.033C105.155,43.768 104.245,44.136 103.083,44.136C102.365,44.136 101.728,43.968 101.171,43.631C100.614,43.294 100.185,42.811 99.882,42.181C99.579,41.551 99.428,40.814 99.428,39.969C99.428,38.66 99.755,37.641 100.409,36.91C101.063,36.181 101.971,35.815 103.134,35.815C104.257,35.815 105.15,36.189 105.812,36.936C106.472,37.683 106.803,38.694 106.803,39.969ZM100.687,39.969C100.687,40.994 100.892,41.776 101.302,42.313C101.712,42.85 102.316,43.119 103.112,43.119C103.908,43.119 104.511,42.851 104.924,42.316C105.336,41.782 105.543,41 105.543,39.969C105.543,38.948 105.336,38.173 104.924,37.643C104.511,37.114 103.903,36.849 103.097,36.849C102.301,36.849 101.701,37.11 101.295,37.632C100.889,38.154 100.687,38.933 100.687,39.969Z" style="fill:rgb(150,150,150);fill-rule:nonzero;"/>
                    <path d="M113.677,43.99L113.677,38.797C113.677,38.143 113.529,37.654 113.231,37.332C112.933,37.01 112.466,36.849 111.832,36.849C110.992,36.849 110.377,37.076 109.986,37.53C109.595,37.984 109.4,38.734 109.4,39.779L109.4,43.99L108.184,43.99L108.184,35.963L109.173,35.963L109.37,37.062L109.429,37.062C109.678,36.666 110.028,36.361 110.477,36.143C110.926,35.926 111.426,35.817 111.978,35.817C112.945,35.817 113.672,36.05 114.161,36.516C114.649,36.983 114.893,37.729 114.893,38.754L114.893,43.99L113.677,43.99Z" style="fill:rgb(150,150,150);fill-rule:nonzero;"/>
                    <path d="M122.442,41.8C122.442,42.547 122.164,43.123 121.607,43.529C121.05,43.935 120.269,44.136 119.263,44.136C118.199,44.136 117.368,43.968 116.773,43.631L116.773,42.503C117.159,42.698 117.572,42.852 118.014,42.964C118.455,43.076 118.882,43.133 119.292,43.133C119.927,43.133 120.415,43.031 120.757,42.828C121.099,42.626 121.27,42.317 121.27,41.902C121.27,41.59 121.134,41.322 120.863,41.099C120.592,40.877 120.064,40.615 119.278,40.312C118.531,40.034 118,39.791 117.684,39.583C117.37,39.376 117.135,39.14 116.981,38.876C116.828,38.612 116.751,38.298 116.751,37.932C116.751,37.278 117.018,36.761 117.55,36.382C118.082,36.004 118.812,35.815 119.739,35.815C120.603,35.815 121.448,35.991 122.273,36.342L121.841,37.331C121.035,36.999 120.305,36.833 119.651,36.833C119.075,36.833 118.64,36.923 118.347,37.104C118.054,37.285 117.908,37.534 117.908,37.851C117.908,38.066 117.963,38.249 118.073,38.401C118.182,38.552 118.36,38.696 118.604,38.833C118.848,38.97 119.317,39.168 120.01,39.427C120.962,39.774 121.605,40.122 121.94,40.474C122.274,40.825 122.442,41.267 122.442,41.8Z" style="fill:rgb(150,150,150);fill-rule:nonzero;"/>
                    <path d="M125.446,35.961L125.446,41.17C125.446,41.824 125.595,42.313 125.893,42.635C126.191,42.957 126.657,43.118 127.291,43.118C128.131,43.118 128.745,42.889 129.133,42.43C129.522,41.971 129.716,41.221 129.716,40.181L129.716,35.962L130.932,35.962L130.932,43.989L129.928,43.989L129.752,42.913L129.687,42.913C129.438,43.309 129.092,43.611 128.65,43.821C128.209,44.031 127.705,44.135 127.138,44.135C126.161,44.135 125.43,43.904 124.944,43.44C124.459,42.976 124.215,42.234 124.215,41.213L124.215,35.961L125.446,35.961Z" style="fill:rgb(150,150,150);fill-rule:nonzero;"/>
                    <rect x="133.378" y="32.593" width="1.216" height="11.396" style="fill:rgb(150,150,150);fill-rule:nonzero;"/>
                    <path d="M139.83,43.133C140.045,43.133 140.253,43.117 140.453,43.085C140.653,43.054 140.811,43.021 140.929,42.986L140.929,43.916C140.797,43.979 140.603,44.032 140.347,44.073C140.09,44.115 139.86,44.135 139.655,44.135C138.102,44.135 137.326,43.318 137.326,41.682L137.326,36.907L136.177,36.907L136.177,36.321L137.326,35.815L137.839,34.101L138.542,34.101L138.542,35.961L140.871,35.961L140.871,36.906L138.542,36.906L138.542,41.63C138.542,42.113 138.657,42.484 138.887,42.743C139.117,43.002 139.43,43.133 139.83,43.133Z" style="fill:rgb(150,150,150);fill-rule:nonzero;"/>
                    <path d="M147.716,43.989L147.474,42.846L147.415,42.846C147.015,43.349 146.615,43.69 146.218,43.867C145.82,44.046 145.323,44.135 144.728,44.135C143.932,44.135 143.308,43.93 142.857,43.52C142.405,43.11 142.179,42.527 142.179,41.77C142.179,40.149 143.475,39.299 146.068,39.221L147.43,39.177L147.43,38.679C147.43,38.049 147.295,37.583 147.024,37.283C146.753,36.982 146.32,36.833 145.724,36.833C145.055,36.833 144.298,37.038 143.453,37.448L143.079,36.517C143.475,36.302 143.908,36.134 144.38,36.012C144.851,35.89 145.323,35.828 145.797,35.828C146.754,35.828 147.463,36.041 147.925,36.466C148.386,36.891 148.616,37.571 148.616,38.509L148.616,43.988L147.716,43.988L147.716,43.989ZM144.969,43.133C145.726,43.133 146.321,42.925 146.753,42.51C147.185,42.095 147.4,41.514 147.4,40.767L147.4,40.042L146.184,40.093C145.217,40.127 144.52,40.278 144.093,40.543C143.665,40.81 143.452,41.224 143.452,41.785C143.452,42.224 143.585,42.558 143.851,42.788C144.118,43.017 144.49,43.133 144.969,43.133Z" style="fill:rgb(150,150,150);fill-rule:nonzero;"/>
                    <path d="M156.522,43.99L156.522,38.797C156.522,38.143 156.374,37.654 156.076,37.332C155.778,37.01 155.311,36.849 154.677,36.849C153.837,36.849 153.222,37.076 152.831,37.53C152.44,37.984 152.245,38.734 152.245,39.779L152.245,43.99L151.029,43.99L151.029,35.963L152.018,35.963L152.215,37.062L152.274,37.062C152.523,36.666 152.873,36.361 153.322,36.143C153.771,35.926 154.271,35.817 154.823,35.817C155.79,35.817 156.517,36.05 157.006,36.516C157.494,36.983 157.738,37.729 157.738,38.754L157.738,43.99L156.522,43.99Z" style="fill:rgb(150,150,150);fill-rule:nonzero;"/>
                    <path d="M162.781,43.133C162.996,43.133 163.203,43.117 163.403,43.085C163.603,43.054 163.762,43.021 163.88,42.986L163.88,43.916C163.748,43.979 163.554,44.032 163.298,44.073C163.041,44.115 162.811,44.135 162.606,44.135C161.053,44.135 160.277,43.318 160.277,41.682L160.277,36.907L159.127,36.907L159.127,36.321L160.277,35.815L160.79,34.101L161.493,34.101L161.493,35.961L163.822,35.961L163.822,36.906L161.493,36.906L161.493,41.63C161.493,42.113 161.607,42.484 161.837,42.743C162.067,43.002 162.381,43.133 162.781,43.133Z" style="fill:rgb(150,150,150);fill-rule:nonzero;"/>
                    <path d="M170.939,41.8C170.939,42.547 170.661,43.123 170.104,43.529C169.547,43.935 168.766,44.136 167.76,44.136C166.696,44.136 165.865,43.968 165.27,43.631L165.27,42.503C165.656,42.698 166.069,42.852 166.511,42.964C166.952,43.076 167.379,43.133 167.789,43.133C168.424,43.133 168.912,43.031 169.254,42.828C169.596,42.626 169.767,42.317 169.767,41.902C169.767,41.59 169.631,41.322 169.36,41.099C169.089,40.877 168.561,40.615 167.775,40.312C167.028,40.034 166.497,39.791 166.181,39.583C165.867,39.376 165.632,39.14 165.478,38.876C165.325,38.612 165.248,38.298 165.248,37.932C165.248,37.278 165.515,36.761 166.047,36.382C166.579,36.004 167.309,35.815 168.236,35.815C169.1,35.815 169.945,35.991 170.77,36.342L170.338,37.331C169.532,36.999 168.802,36.833 168.148,36.833C167.572,36.833 167.137,36.923 166.844,37.104C166.551,37.285 166.405,37.534 166.405,37.851C166.405,38.066 166.46,38.249 166.57,38.401C166.679,38.552 166.857,38.696 167.101,38.833C167.345,38.97 167.814,39.168 168.507,39.427C169.459,39.774 170.102,40.122 170.437,40.474C170.771,40.825 170.939,41.267 170.939,41.8Z" style="fill:rgb(150,150,150);fill-rule:nonzero;"/>
                </g>
                <g>
                    <path d="M63.374,6.97C67.807,6.97 70.227,8.542 70.227,12.817C70.227,16.306 68.624,17.029 67.649,17.438C70.415,18.507 71.107,20.644 71.107,23.002C71.107,26.711 69.41,29.509 63.185,29.509L52.371,29.509L52.371,6.97L63.374,6.97ZM57.024,10.837L57.024,15.835L62.243,15.835C65.041,15.835 65.732,15.489 65.732,13.163C65.732,11.277 65.292,10.837 61.362,10.837L57.024,10.837ZM57.024,19.702L57.024,25.644L61.205,25.644C65.449,25.644 66.392,25.33 66.392,22.752C66.392,20.049 65.512,19.703 62.117,19.703L57.024,19.703L57.024,19.702Z" style="fill:rgb(71,71,71);fill-rule:nonzero;"/>
                    <rect x="72.943" y="6.97" width="4.37" height="22.54" style="fill:rgb(71,71,71);fill-rule:nonzero;"/>
                    <path d="M90.914,27.749C89.782,29.572 87.739,29.918 85.79,29.918C81.798,29.918 80.068,28.44 80.068,23.694L80.068,12.943L84.438,12.943L84.438,23.411C84.438,25.643 85.129,26.335 87.33,26.335C89.625,26.335 90.662,25.58 90.662,22.5L90.662,12.943L95.031,12.943L95.031,29.51L90.913,29.51L90.913,27.749L90.914,27.749Z" style="fill:rgb(71,71,71);fill-rule:nonzero;"/>
                    <path d="M112.513,24.763C111.979,28.567 109.464,29.919 104.968,29.919C99.844,29.919 97.046,28.159 97.046,21.054C97.046,16.307 98.304,12.535 105.157,12.535C110.973,12.535 112.702,15.239 112.702,22.438L101.542,22.438C101.699,25.582 102.485,26.336 104.937,26.336C106.603,26.336 107.609,26.022 108.049,24.764L112.513,24.764L112.513,24.763ZM108.331,19.67C108.143,16.652 106.948,16.118 104.936,16.118C102.389,16.118 101.73,16.998 101.572,19.67L108.331,19.67Z" style="fill:rgb(71,71,71);fill-rule:nonzero;"/>
                    <path d="M114.958,6.97L119.328,6.97L119.328,14.389C120.051,13.477 121.34,12.534 124.201,12.534C129.137,12.534 131.086,15.332 131.086,21.022C131.086,27.309 128.728,29.887 124.139,29.919C122.064,29.919 120.241,29.636 119.172,27.939L119.172,29.511L114.959,29.511L114.959,6.97L114.958,6.97ZM122.88,26.335C125.458,26.335 126.59,25.423 126.59,21.117C126.59,17.627 125.835,16.119 122.818,16.119C120.334,16.119 119.203,17.125 119.203,21.18C119.202,25.58 120.522,26.335 122.88,26.335Z" style="fill:rgb(71,71,71);fill-rule:nonzero;"/>
                    <path d="M148.236,24.763C147.702,28.567 145.187,29.919 140.691,29.919C135.567,29.919 132.769,28.159 132.769,21.054C132.769,16.307 134.027,12.535 140.879,12.535C146.695,12.535 148.424,15.239 148.424,22.438L137.264,22.438C137.421,25.582 138.207,26.336 140.659,26.336C142.325,26.336 143.331,26.022 143.771,24.764L148.236,24.764L148.236,24.763ZM144.055,19.67C143.866,16.652 142.672,16.118 140.66,16.118C138.114,16.118 137.454,16.998 137.296,19.67L144.055,19.67Z" style="fill:rgb(71,71,71);fill-rule:nonzero;"/>
                    <path d="M150.709,29.51L150.709,12.943L154.827,12.943L154.827,15.018C155.833,13.289 156.933,12.597 159.102,12.597C159.888,12.597 160.234,12.691 160.234,12.691L160.234,16.872C160.234,16.872 159.731,16.778 158.851,16.778C155.393,16.778 155.079,19.607 155.079,23.38L155.079,29.51L150.709,29.51Z" style="fill:rgb(71,71,71);fill-rule:nonzero;"/>
                    <path d="M162.102,29.51L162.102,12.943L166.22,12.943L166.22,15.018C167.226,13.289 168.326,12.597 170.495,12.597C171.281,12.597 171.627,12.691 171.627,12.691L171.627,16.872C171.627,16.872 171.124,16.778 170.244,16.778C166.786,16.778 166.472,19.607 166.472,23.38L166.472,29.51L162.102,29.51Z" style="fill:rgb(71,71,71);fill-rule:nonzero;"/>
                    <path d="M177.511,12.943C178.328,16.967 179.554,20.991 181.189,25.015L184.804,12.943L189.394,12.943L183.484,29.51C181.629,34.76 181.001,36.174 176.977,36.174C175.782,36.174 174.776,36.048 174.776,36.048L174.776,32.622C174.776,32.622 175.185,32.685 175.499,32.685C177.196,32.685 178.36,32.496 178.894,29.95C176.316,24.291 174.273,18.601 172.701,12.943L177.511,12.943Z" style="fill:rgb(71,71,71);fill-rule:nonzero;"/>
                </g>
                <g>
                    <circle cx="17.22" cy="35.631" r="8.189" style="fill:rgb(95,37,159);"/>
                    <circle cx="37.692" cy="15.159" r="8.189" style="fill:rgb(187,22,163);"/>
                    <path d="M37.692,27.442C30.908,27.442 25.409,21.943 25.409,15.159C25.409,10.636 21.743,6.97 17.22,6.97C12.697,6.97 9.031,10.636 9.031,15.159C9.031,19.682 12.697,23.348 17.22,23.348C24.004,23.348 29.503,28.847 29.503,35.631C29.503,40.154 33.169,43.82 37.692,43.82C42.215,43.82 45.881,40.154 45.881,35.631C45.881,31.108 42.215,27.442 37.692,27.442Z" style="fill:rgb(95,37,159);fill-rule:nonzero;"/>
                </g>
            </g>
        </g>
    </g>
</svg>
